<?xml version="1.0" encoding="UTF-8"?>
<svg version="1.1" xmlns="http://www.w3.org/2000/svg" width="888" height="280">
<path d="M0 0 C17.53580809 15.02001744 26.35827462 38.06472597 28.3125 60.75 C28.38894487 63.71958271 28.37809086 66.68595126 28.35546875 69.65625 C28.35236694 70.43774414 28.34926514 71.21923828 28.34606934 72.02441406 C28.33804411 73.93295864 28.3257165 75.84148431 28.3125 77.75 C21.88978005 78.18048448 15.46682661 78.60734719 9.04370117 79.03173828 C6.86037799 79.17641925 4.67710881 79.32191758 2.49389648 79.46826172 C-0.65106457 79.67892897 -3.79621054 79.88661922 -6.94140625 80.09375 C-7.9114711 80.15937134 -8.88153595 80.22499268 -9.8809967 80.29260254 C-14.82965314 80.61552639 -19.72837087 80.82191486 -24.6875 80.75 C-24.78546875 79.86699219 -24.8834375 78.98398438 -24.984375 78.07421875 C-26.69816736 64.31955763 -30.0708118 51.98602844 -41.0390625 42.87890625 C-46.30716967 39.27112669 -53.6342461 40.18554867 -59.6875 40.75 C-70.14756936 43.93225848 -77.62765806 51.58116888 -83.09375 60.76171875 C-97.21692587 87.2426735 -97.64920201 121.0974914 -89.16015625 149.40234375 C-84.86080549 162.6085307 -77.92875748 174.56999557 -65.70703125 181.8125 C-55.20462266 186.68789277 -44.20541182 185.68417763 -33.47265625 181.94140625 C-28.45583601 179.79536113 -25.30311371 177.14455501 -22.4375 172.4375 C-19.85099885 166.05979352 -19.85099885 166.05979352 -18.6875 151.75 C-33.5375 152.08 -48.3875 152.41 -63.6875 152.75 C-65.45478782 136.84440963 -64.6875 120.75347185 -64.6875 104.75 C-31.6875 104.75 1.3125 104.75 35.3125 104.75 C35.3125 198.02989871 35.3125 198.02989871 4.74951172 229.35253906 C-13.57428903 247.17201502 -36.83622083 251.32067505 -61.4765625 251.03125 C-84.43515936 250.32721452 -103.26209229 240.45751402 -119.6875 224.75 C-120.30109375 224.19957031 -120.9146875 223.64914063 -121.546875 223.08203125 C-133.5592825 211.92371695 -141.47560614 195.71324119 -147.6875 180.75 C-148.45191406 181.07613281 -149.21632813 181.40226563 -150.00390625 181.73828125 C-160.60281337 186.06202314 -171.12575767 189.0309119 -182.6875 188.75 C-182.3575 187.43 -182.0275 186.11 -181.6875 184.75 C-180.75550781 184.66363281 -179.82351563 184.57726562 -178.86328125 184.48828125 C-170.64710514 183.58275729 -163.84430021 182.02706381 -156.19921875 178.7734375 C-153.6875 177.75 -153.6875 177.75 -151.6875 177.75 C-151.6875 177.09 -151.6875 176.43 -151.6875 175.75 C-151.0275 175.75 -150.3675 175.75 -149.6875 175.75 C-150.120625 174.06970703 -150.120625 174.06970703 -150.5625 172.35546875 C-150.93768691 170.88286011 -151.31267665 169.41020122 -151.6875 167.9375 C-151.87828125 167.19951172 -152.0690625 166.46152344 -152.265625 165.70117188 C-153.04012914 162.64464659 -153.6875 159.91626522 -153.6875 156.75 C-154.40035156 157.09933594 -155.11320312 157.44867188 -155.84765625 157.80859375 C-161.18850834 160.34603761 -165.76616001 162.355244 -171.6875 162.75 C-171.6875 161.43 -171.6875 160.11 -171.6875 158.75 C-166.4075 156.44 -161.1275 154.13 -155.6875 151.75 C-156.6775 141.19 -157.6675 130.63 -158.6875 119.75 C-162.70634822 128.59961977 -162.70634822 128.59961977 -166.70361328 137.45898438 C-169.45274598 143.44609964 -172.21292074 148.97050207 -176.38330078 154.12109375 C-178.22920322 156.4265713 -179.62863754 158.92341467 -181.0625 161.5 C-186.51510662 171.0211818 -192.76888419 179.96752264 -199.18676758 188.85498047 C-201.15499259 191.58279424 -203.05916317 194.32398709 -204.859375 197.1640625 C-205.76429688 198.44410156 -205.76429688 198.44410156 -206.6875 199.75 C-207.3475 199.75 -208.0075 199.75 -208.6875 199.75 C-208.95691406 200.33910156 -209.22632813 200.92820313 -209.50390625 201.53515625 C-210.68257327 203.74078067 -211.94972879 205.34171772 -213.625 207.1875 C-215.36677191 209.10745829 -216.75105086 210.86016696 -218.05078125 213.11328125 C-220.00507581 216.2616078 -222.3937788 218.83219484 -224.9375 221.5 C-228.24580308 225.02376775 -231.37944202 228.53929596 -234.25 232.4375 C-238.04603466 237.42265396 -242.38553941 242.35742715 -247.6875 245.75 C-250.64429933 245.97668795 -252.08900821 245.2320847 -254.37451172 243.39111328 C-256.33869021 241.56898652 -258.2055771 239.68126466 -260.0625 237.75 C-261.06821045 236.72386597 -261.06821045 236.72386597 -262.09423828 235.67700195 C-266.04834417 231.5959205 -269.73370685 227.43981287 -273.08984375 222.84765625 C-274.96677592 220.38332233 -277.02188815 218.14892296 -279.125 215.875 C-283.7603776 210.79179778 -287.72984883 205.36781895 -291.6875 199.75 C-296.2612364 193.35929983 -300.92560598 187.10418383 -305.92578125 181.0390625 C-307.6875 178.75 -307.6875 178.75 -308.98193359 176.21777344 C-311.06335832 173.20617293 -312.23511762 172.84209054 -315.73828125 171.9765625 C-317.24092529 171.58150513 -317.24092529 171.58150513 -318.77392578 171.1784668 C-320.37083252 170.78075073 -320.37083252 170.78075073 -322 170.375 C-335.63779117 166.67112056 -346.78075226 161.61569104 -358.07275391 153.0378418 C-361.98718789 149.84132009 -361.98718789 149.84132009 -366.6875 148.75 C-368.98162165 149.89410448 -371.03612075 151.06945856 -373.1875 152.4375 C-386.8411768 160.59502334 -400.95072121 162.75 -416.6875 162.75 C-416.6875 189.15 -416.6875 215.55 -416.6875 242.75 C-435.8275 242.42 -454.9675 242.09 -474.6875 241.75 C-474.6875 157.6 -474.6875 73.45 -474.6875 -13.25 C-397.10636792 -13.25 -397.10636792 -13.25 -375.6875 -2.25 C-374.62015625 -1.71503906 -373.5528125 -1.18007813 -372.453125 -0.62890625 C-364.43635106 3.70139781 -358.14430448 9.4191261 -351.6875 15.75 C-346.82014304 13.91363409 -342.18416073 11.62647233 -337.5 9.375 C-318.74803793 0.45091634 -318.74803793 0.45091634 -310.6875 -0.25 C-310.6875 0.74 -310.6875 1.73 -310.6875 2.75 C-314.38282586 4.62869239 -318.10815297 6.39998233 -321.88989258 8.09741211 C-329.02415073 11.31948618 -335.60812046 14.98882778 -342.17578125 19.24609375 C-344.6875 20.75 -344.6875 20.75 -346.6875 20.75 C-343.3875 26.36 -340.0875 31.97 -336.6875 37.75 C-333.2891455 32.75698535 -333.2891455 32.75698535 -329.89770508 27.75927734 C-325.27873108 21.00695277 -320.69776001 15.41775304 -314.0625 10.5625 C-309.94794552 7.6124741 -309.94794552 7.6124741 -306.2421875 4.19140625 C-303.67736801 1.8134706 -300.54642391 0.41508586 -297.4375 -1.125 C-296.73093262 -1.47578613 -296.02436523 -1.82657227 -295.29638672 -2.18798828 C-270.9467912 -13.97005063 -243.41301853 -16.20408835 -217.65429688 -7.56835938 C-207.14476013 -3.86810541 -196.31249879 0.41015758 -188.6875 8.75 C-187.6975 9.08 -186.7075 9.41 -185.6875 9.75 C-182.93410321 7.85631708 -182.93410321 7.85631708 -180.125 5.3125 C-174.87986641 0.75 -174.87986641 0.75 -172.6875 0.75 C-172.790625 -0.301875 -172.89375 -1.35375 -173 -2.4375 C-172.6875 -6.25 -172.6875 -6.25 -170.25 -9.125 C-169.404375 -9.82625 -168.55875 -10.5275 -167.6875 -11.25 C-167.3575 -11.58 -167.0275 -11.91 -166.6875 -12.25 C-161.87210113 -12.79396172 -157.93019105 -12.97490311 -153.6875 -10.5 C-149.65216431 -5.96024735 -149.65216431 -5.96024735 -149.7265625 -2.359375 C-150.44979508 4.87295082 -150.44979508 4.87295082 -152.6875 7.75 C-157.20190255 10.943114 -160.49547275 10.92028961 -165.734375 10.171875 C-167.6875 9.75 -167.6875 9.75 -169.6875 8.75 C-172.17368701 9.97286718 -172.17368701 9.97286718 -174.8125 11.6875 C-175.72257812 12.25339844 -176.63265625 12.81929687 -177.5703125 13.40234375 C-178.26898438 13.84707031 -178.96765625 14.29179688 -179.6875 14.75 C-178.511875 16.0184375 -178.511875 16.0184375 -177.3125 17.3125 C-170.12508619 25.72911523 -158.6875 39.32276848 -158.6875 50.75 C-158.0275 50.75 -157.3675 50.75 -156.6875 50.75 C-156.03970924 53.14531933 -155.39420991 55.54121748 -154.75 57.9375 C-154.56759766 58.61103516 -154.38519531 59.28457031 -154.19726562 59.97851562 C-153.2386642 63.55148458 -152.35866718 67.11156738 -151.6875 70.75 C-150.70584721 67.83416415 -149.72761699 64.9171912 -148.75 62 C-148.47220703 61.175 -148.19441406 60.35 -147.90820312 59.5 C-147.64072266 58.70078125 -147.37324219 57.9015625 -147.09765625 57.078125 C-146.85152588 56.3449707 -146.60539551 55.61181641 -146.35180664 54.85644531 C-146.13258545 54.16131836 -145.91336426 53.46619141 -145.6875 52.75 C-145.44314209 52.04584961 -145.19878418 51.34169922 -144.94702148 50.61621094 C-144.81855835 49.69243652 -144.81855835 49.69243652 -144.6875 48.75 C-145.8940625 47.6671875 -145.8940625 47.6671875 -147.125 46.5625 C-149.81718355 43.6076644 -150.13110699 43.02172372 -150.3125 39.25 C-150.11624212 35.57016479 -149.72572275 34.79828137 -147.3125 31.75 C-143.11638491 28.55295993 -139.86015854 28.4017418 -134.6875 28.75 C-133.6975 29.08 -132.7075 29.41 -131.6875 29.75 C-131.46964844 29.05390625 -131.25179688 28.3578125 -131.02734375 27.640625 C-129.34715658 24.01573139 -126.96414428 21.37136865 -124.25 18.5 C-123.71358887 17.92934814 -123.17717773 17.35869629 -122.62451172 16.77075195 C-109.60674812 3.15744195 -94.54374482 -5.66057378 -76.6875 -11.25 C-75.05748047 -11.76240234 -75.05748047 -11.76240234 -73.39453125 -12.28515625 C-48.42909039 -18.57773513 -20.53243997 -15.96967553 0 0 Z M-277.6875 38.75 C-277.6875 39.41 -277.6875 40.07 -277.6875 40.75 C-278.3475 40.95625 -279.0075 41.1625 -279.6875 41.375 C-286.50495153 44.49966529 -290.5903308 47.65938205 -293.625 54.6875 C-295.24848981 59.06220577 -296.37041241 63.09938198 -296.6875 67.75 C-297.3475 67.75 -298.0075 67.75 -298.6875 67.75 C-299.81921194 72.27684777 -299.83650109 76.61778936 -299.8125 81.25 C-299.81636719 81.99636719 -299.82023438 82.74273437 -299.82421875 83.51171875 C-299.81735206 87.39139586 -299.63479776 90.96080898 -298.6875 94.75 C-298.0275 94.75 -297.3675 94.75 -296.6875 94.75 C-296.64625 95.678125 -296.605 96.60625 -296.5625 97.5625 C-294.98713015 108.22322199 -287.36621786 116.22925887 -279.29296875 122.65625 C-269.29260228 129.7329711 -255.90987526 133.36618185 -243.6875 131.75 C-233.09993047 129.90467198 -225.15465063 126.31714243 -216.6875 119.75 C-215.9759375 119.22019531 -215.264375 118.69039063 -214.53125 118.14453125 C-210.38255681 114.86600887 -207.99899801 111.46344595 -205.6875 106.75 C-205.34976563 106.15574219 -205.01203125 105.56148438 -204.6640625 104.94921875 C-197.76132365 92.41529821 -196.87663723 78.25477479 -200.703125 64.609375 C-205.68051833 50.15123248 -215.23625628 41.60252038 -228.6875 34.75 C-245.43898833 27.70676059 -262.30732119 29.35100184 -277.6875 38.75 Z M-418.6875 44.75 C-419.81666644 60.97969888 -419.80394041 77.174976 -419.75 93.4375 C-419.74439129 96.09700436 -419.74041138 98.75650813 -419.73632812 101.41601562 C-419.7254327 107.86069768 -419.70879914 114.30534436 -419.6875 120.75 C-417.60230784 120.4938709 -415.5193495 120.21951265 -413.4375 119.9375 C-412.27734375 119.78667969 -411.1171875 119.63585937 -409.921875 119.48046875 C-405.96650948 118.5871676 -403.78388809 117.26937732 -401.421875 113.99609375 C-399.3893001 110.57339951 -399.3893001 110.57339951 -398.6875 106.75 C-397.78 106.605625 -396.8725 106.46125 -395.9375 106.3125 C-391.77533492 104.31145909 -391.13958161 102.37112798 -389.44921875 98.234375 C-386.04635543 87.13580542 -385.64850991 71.67351635 -390.4296875 61.0078125 C-394.84397095 53.08403661 -399.91339616 47.67470128 -408.6875 44.75 C-410.41545352 44.68197033 -412.14585365 44.66504355 -413.875 44.6875 C-415.47916667 44.70833333 -417.08333333 44.72916667 -418.6875 44.75 Z M-341.6875 117.75 C-342.88082794 119.6922021 -344.04090022 121.65485038 -345.1875 123.625 C-348.52395054 129.22882172 -352.2897268 133.99135982 -356.8046875 138.7265625 C-358.84133109 140.80664291 -358.84133109 140.80664291 -360.6875 143.75 C-352.18455415 149.60906113 -343.74201677 154.32299146 -334.18359375 158.2421875 C-330.6875 159.75 -330.6875 159.75 -328.37109375 161.25390625 C-305.14054564 174.20485228 -269.11852531 174.0798036 -244.15429688 167.03515625 C-235.2348371 164.37243943 -235.2348371 164.37243943 -226.6875 160.75 C-226.6875 160.09 -226.6875 159.43 -226.6875 158.75 C-224.2125 158.255 -224.2125 158.255 -221.6875 157.75 C-225.53549048 156.46733651 -226.4516776 157.31559491 -230.0625 159 C-251.57575507 168.27871575 -276.26049404 167.88723534 -299.10595703 165.06103516 C-300.74755672 164.86324832 -302.39187043 164.68607271 -304.03857422 164.53662109 C-309.60987757 164.00056337 -315.24723669 163.37967278 -319.25390625 159.06201172 C-322.73419322 154.30213923 -325.22749222 149.086724 -327.6875 143.75 C-328.559378 142.06088485 -329.43371763 140.37303339 -330.3125 138.6875 C-331.10513724 137.04213388 -331.89664395 135.39622301 -332.6875 133.75 C-334.11729457 130.87113754 -335.55910599 127.99831955 -337 125.125 C-337.70461506 123.71623984 -338.40905741 122.30739327 -339.11328125 120.8984375 C-339.89251953 119.33996094 -339.89251953 119.33996094 -340.6875 117.75 C-341.0175 117.75 -341.3475 117.75 -341.6875 117.75 Z " fill="#836FF4" transform="translate(500.6875,23.25)"/>
<path d="M0 0 C3.65467683 -0.00441179 7.30817828 -0.0410214 10.96264648 -0.07861328 C27.35103663 -0.15838438 43.42973809 0.50715945 58.32788086 8.12060547 C59.37492188 8.63602905 59.37492188 8.63602905 60.44311523 9.16186523 C66.37556486 12.18523876 71.45313096 15.825465 76.32788086 20.37060547 C77.09358398 21.04607422 77.85928711 21.72154297 78.64819336 22.41748047 C92.32547109 35.12112148 99.75958129 53.24204111 100.54663086 71.74951172 C101.19288149 95.80766026 93.88401066 116.62623668 77.32788086 134.37060547 C69.6885366 141.1902776 69.6885366 141.1902776 65.32788086 143.37060547 C64.19207185 158.2623236 68.5112588 173.68845879 78.14038086 185.18310547 C88.43116266 196.15218739 97.79595691 196.45696288 113.32788086 197.37060547 C113.32788086 215.52060547 113.32788086 233.67060547 113.32788086 252.37060547 C88.01325877 252.37060547 67.13572001 250.47405624 47.74975586 232.81201172 C30.13815428 215.05838109 24.6081467 191.26456008 20.32788086 167.37060547 C19.39975586 168.11310547 19.39975586 168.11310547 18.45288086 168.87060547 C16.32788086 170.37060547 16.32788086 170.37060547 14.32788086 170.37060547 C14.48184326 171.16273438 14.63580566 171.95486328 14.79443359 172.77099609 C15.44651289 177.1711138 15.6683064 181.52378392 15.86303711 185.96435547 C15.90610489 186.89694183 15.94917267 187.8295282 15.99354553 188.79037476 C16.13080808 191.81692063 16.26127799 194.8437012 16.39038086 197.87060547 C16.43523621 198.89639709 16.48009155 199.92218872 16.52630615 200.97906494 C17.26841508 218.13475877 17.50493633 235.19622483 17.32788086 252.37060547 C-1.81211914 253.03060547 -20.95211914 253.69060547 -40.67211914 254.37060547 C-42.58913844 211.96327193 -43.83429452 169.54526183 -45.04308295 127.11309361 C-45.26896099 119.19828649 -45.50037302 111.28364816 -45.73302042 103.36903751 C-45.96127738 95.59705452 -46.18609517 87.82497692 -46.40829504 80.05281842 C-46.5393929 75.46830942 -46.67163565 70.8838424 -46.80727005 66.29946518 C-47.43637467 44.98248004 -47.83472459 23.69788977 -47.67211914 2.37060547 C-31.75699342 0.74743119 -16.00036973 -0.00215624 0 0 Z M10.32788086 57.37060547 C10.44713743 63.55967649 10.57143979 69.74861929 10.70019531 75.9375 C10.74321182 78.03805873 10.78490643 80.138645 10.82519531 82.23925781 C11.09191783 98.33128352 11.09191783 98.33128352 12.32788086 114.37060547 C21.42223105 114.94802453 27.53888576 112.86755613 34.64038086 107.12060547 C39.97221907 102.18175135 42.86271525 96.14427217 43.56616211 88.92529297 C43.81357116 79.99252424 41.78742172 73.10809322 36.20288086 66.05810547 C31.48605141 61.12095702 26.12561274 57.60654439 19.18408203 57.17529297 C18.13196533 57.19849609 17.07984863 57.22169922 15.99584961 57.24560547 C14.93003662 57.26365234 13.86422363 57.28169922 12.76611328 57.30029297 C11.96149658 57.32349609 11.15687988 57.34669922 10.32788086 57.37060547 Z " fill="#9E7EF5" transform="translate(759.672119140625,11.62939453125)"/>
<path d="M0 0 C77.58113208 0 77.58113208 0 99 11 C100.06734375 11.53496094 101.1346875 12.06992187 102.234375 12.62109375 C110.25114894 16.95139781 116.54319552 22.6691261 123 29 C127.86735696 27.16363409 132.50333927 24.87647233 137.1875 22.625 C155.93946207 13.70091634 155.93946207 13.70091634 164 13 C164 13.99 164 14.98 164 16 C160.30467414 17.87869239 156.57934703 19.64998233 152.79760742 21.34741211 C145.66334927 24.56948618 139.07937954 28.23882778 132.51171875 32.49609375 C130 34 130 34 128 34 C131.3 39.61 134.6 45.22 138 51 C138.99 50.01 139.98 49.02 141 48 C140.649375 48.845625 140.29875 49.69125 139.9375 50.5625 C138.34291169 56.4093238 140.18764276 61.84661451 141.5625 67.625 C145.05506634 84.02916062 143.57858542 101.09650777 138.8046875 117.07421875 C138.51126465 118.07799561 138.51126465 118.07799561 138.21191406 119.10205078 C137.66096221 120.94237663 137.07009714 122.77061936 136.4765625 124.59765625 C135.86428703 128.96890159 137.02218776 131.10645932 139 135 C139.37640625 135.97582031 139.7528125 136.95164063 140.140625 137.95703125 C142.57939562 144.23428944 145.40655219 149.42667901 149.546875 154.74609375 C151.12765363 157.19800038 151.61523595 159.12945768 152 162 C152.99 162.33 153.98 162.66 155 163 C156.06231979 165.31210779 156.88646506 167.57410325 157.54174805 170.03222656 C159.93435672 173.26082625 163.51622409 173.46292037 167.26953125 174.171875 C168.53178276 174.42260773 168.53178276 174.42260773 169.8195343 174.67840576 C179.71568479 176.5100764 189.65017493 176.9062008 199.6875 177.25 C201.5762319 177.3266602 203.46490517 177.40477902 205.35351562 177.484375 C209.90184776 177.67297501 214.45050095 177.84215827 219 178 C214.78332134 182.21667866 206.34967038 181.06412348 200.625 181.1875 C192.23420401 181.08942576 183.90012186 180.33759206 175.57714844 179.30664062 C173.94271463 179.11216839 172.30515906 178.94129742 170.66503906 178.80273438 C164.90476291 178.29379431 159.43417072 177.61196729 155.33544922 173.21386719 C151.56515932 168.16596446 148.74695141 162.65049862 146 157 C145.49339844 156.03835937 144.98679688 155.07671875 144.46484375 154.0859375 C143.24927976 151.74861511 142.12474185 149.38224012 141 147 C139.73928307 144.45325337 138.46291586 141.91441009 137.1875 139.375 C136.57657281 138.15377092 135.96587423 136.93242743 135.35546875 135.7109375 C134.90816406 134.81632813 134.46085938 133.92171875 134 133 C131.25491856 136.37200691 128.68867045 139.81936461 126.1875 143.375 C122.82371405 148.03886082 119.23729878 152.1202233 115 156 C131.44339077 169.82599711 152.72522552 176.20041621 173 182 C169.25712373 184.13181214 167.21015871 183.95685425 163 183 C163.44730469 183.3403125 163.89460937 183.680625 164.35546875 184.03125 C168.3374261 187.22360813 170.99850447 190.25943317 173.5546875 194.65234375 C177.92016218 201.74329046 183.08959327 208.15889452 189 214 C192 218.44827586 192 218.44827586 192 221 C192.66 221 193.32 221 194 221 C194.33 222.32 194.66 223.64 195 225 C195.66 225 196.32 225 197 225 C197 225.66 197 226.32 197 227 C197.99 227.33 198.98 227.66 200 228 C201.52601771 229.86322762 202.97469912 231.7905346 204.375 233.75 C207.33481962 237.87950778 210.37738341 241.44467659 214 245 C216.51318205 247.94513521 219.01758846 250.89605118 221.5 253.8671875 C223.81075559 256.33977233 223.81075559 256.33977233 226.8125 255.8203125 C227.534375 255.54960937 228.25625 255.27890625 229 255 C229.0825 254.443125 229.165 253.88625 229.25 253.3125 C230.23895541 250.26322081 231.84757466 248.34810037 234 246 C234.66 246 235.32 246 236 246 C236.20625 245.443125 236.4125 244.88625 236.625 244.3125 C238 242 238 242 240.9375 239.5625 C243.94640305 237.04484643 245.09853585 235.3465769 247 232 C250.31867788 227.27177613 253.69987422 223.0962546 258.1875 219.4375 C262.23716478 216.09280588 263.86731094 212.75753713 266 208 C266.66 207.67 267.32 207.34 268 207 C268.33 206.01 268.66 205.02 269 204 C269.66 203.67 270.32 203.34 271 203 C271.33 202.01 271.66 201.02 272 200 C272.57492187 199.43152344 273.14984375 198.86304688 273.7421875 198.27734375 C276.67649719 195.31765076 278.83830661 192.03325272 281.125 188.5625 C281.78822266 187.57926758 281.78822266 187.57926758 282.46484375 186.57617188 C284.28210105 183.83930552 285.86410112 181.35082045 287.0546875 178.27734375 C288 176 288 176 289.82421875 174.1796875 C292.81347961 171.18505993 294.71036944 167.77621902 296.8125 164.125 C297.4629126 163.00847046 297.4629126 163.00847046 298.12646484 161.86938477 C302.05280742 155.05662238 305.60586857 148.09171171 309 141 C309.99 141.33 310.98 141.66 312 142 C310.64069926 145.00735073 309.2596944 148.00426693 307.875 151 C307.49601562 151.83917969 307.11703125 152.67835938 306.7265625 153.54296875 C304.39350228 158.55904822 301.79359172 162.86628844 298.37451172 167.21289062 C296.54150398 169.59612627 295.08562096 172.12533087 293.625 174.75 C288.17239338 184.2711818 281.91861581 193.21752264 275.50073242 202.10498047 C273.53250741 204.83279424 271.62833683 207.57398709 269.828125 210.4140625 C268.92320312 211.69410156 268.92320312 211.69410156 268 213 C267.34 213 266.68 213 266 213 C265.73058594 213.58910156 265.46117187 214.17820313 265.18359375 214.78515625 C264.00492673 216.99078067 262.73777121 218.59171772 261.0625 220.4375 C259.32072809 222.35745829 257.93644914 224.11016696 256.63671875 226.36328125 C254.68242419 229.5116078 252.2937212 232.08219484 249.75 234.75 C246.44169692 238.27376775 243.30805798 241.78929596 240.4375 245.6875 C236.64146534 250.67265396 232.30196059 255.60742715 227 259 C224.04320067 259.22668795 222.59849179 258.4820847 220.31298828 256.64111328 C218.34880979 254.81898652 216.4819229 252.93126466 214.625 251 C213.61928955 249.97386597 213.61928955 249.97386597 212.59326172 248.92700195 C208.63915583 244.8459205 204.95379315 240.68981287 201.59765625 236.09765625 C199.72072408 233.63332233 197.66561185 231.39892296 195.5625 229.125 C190.9271224 224.04179778 186.95765117 218.61781895 183 213 C178.4262636 206.60929983 173.76189402 200.35418383 168.76171875 194.2890625 C167 192 167 192 165.70556641 189.46777344 C163.62414168 186.45617293 162.45238238 186.09209054 158.94921875 185.2265625 C157.44657471 184.83150513 157.44657471 184.83150513 155.91357422 184.4284668 C154.31666748 184.03075073 154.31666748 184.03075073 152.6875 183.625 C139.04970883 179.92112056 127.90674774 174.86569104 116.61474609 166.2878418 C112.70031211 163.09132009 112.70031211 163.09132009 108 162 C105.70587835 163.14410448 103.65137925 164.31945856 101.5 165.6875 C87.8463232 173.84502334 73.73677879 176 58 176 C58 202.4 58 228.8 58 256 C38.86 255.67 19.72 255.34 0 255 C0 170.85 0 86.7 0 0 Z M56 58 C54.87083356 74.22969888 54.88355959 90.424976 54.9375 106.6875 C54.94310871 109.34700436 54.94708862 112.00650813 54.95117188 114.66601562 C54.9620673 121.11069768 54.97870086 127.55534436 55 134 C57.08519216 133.7438709 59.1681505 133.46951265 61.25 133.1875 C62.41015625 133.03667969 63.5703125 132.88585937 64.765625 132.73046875 C68.72099052 131.8371676 70.90361191 130.51937732 73.265625 127.24609375 C75.2981999 123.82339951 75.2981999 123.82339951 76 120 C76.9075 119.855625 77.815 119.71125 78.75 119.5625 C82.91216508 117.56145909 83.54791839 115.62112798 85.23828125 111.484375 C88.64114457 100.38580542 89.03899009 84.92351635 84.2578125 74.2578125 C79.84352905 66.33403661 74.77410384 60.92470128 66 58 C64.27204648 57.93197033 62.54164635 57.91504355 60.8125 57.9375 C59.20833333 57.95833333 57.60416667 57.97916667 56 58 Z " fill="#5F5EE8" transform="translate(26,10)"/>
<path d="M0 0 C17.19338969 -0.02332856 34.38677447 -0.04097896 51.58017635 -0.05181217 C59.562815 -0.05697522 67.54544383 -0.06401809 75.52807617 -0.07543945 C82.48323799 -0.08538602 89.43839269 -0.09185336 96.39356142 -0.09408849 C100.07851927 -0.09539565 103.76345678 -0.09848179 107.44840813 -0.10573006 C111.55537708 -0.1137434 115.66231037 -0.11399116 119.76928711 -0.11352539 C120.99998932 -0.11712067 122.23069153 -0.12071594 123.49868774 -0.12442017 C124.61073074 -0.1230455 125.72277374 -0.12167084 126.86851501 -0.12025452 C127.84100661 -0.12117631 128.81349821 -0.1220981 129.81545925 -0.12304783 C132 0 132 0 133 1 C133.16029302 3.31195526 133.25181162 5.62870755 133.31640625 7.9453125 C133.33718735 8.66621063 133.35796844 9.38710876 133.37937927 10.12985229 C133.42280827 11.67504622 133.46382879 13.22030934 133.50268555 14.765625 C133.56032666 17.0392728 133.62609811 19.31255669 133.69335938 21.5859375 C134.04172473 34.05731615 134.04780552 46.52454551 134 59 C107.99127543 58.52486471 81.99301713 58.04569609 56 57 C56.33 69.87 56.66 82.74 57 96 C59.31 95.67 61.62 95.34 64 95 C65.45679116 94.92456605 66.91602083 94.88169187 68.37475586 94.88647461 C69.5611969 94.88665588 69.5611969 94.88665588 70.77160645 94.88684082 C71.57787476 94.89195679 72.38414307 94.89707275 73.21484375 94.90234375 C74.35427429 94.90385437 74.35427429 94.90385437 75.51672363 94.90539551 C78.3236647 94.9105829 81.13058405 94.92454377 83.9375 94.9375 C93.3734375 94.9684375 93.3734375 94.9684375 103 95 C103 112.49 103 129.98 103 148 C88.81 148 74.62 148 60 148 C60 158.56 60 169.12 60 180 C64.29 179.67 68.58 179.34 73 179 C77.24432978 178.79900582 81.48456192 178.61616099 85.73046875 178.46484375 C86.88694412 178.42186661 88.04341949 178.37888947 89.23493958 178.33460999 C91.65747578 178.24518034 94.08005888 178.15701286 96.50268555 178.07006836 C100.18877141 177.93745426 103.87465787 177.80007597 107.56054688 177.66210938 C109.92967717 177.5752387 112.29881749 177.4886408 114.66796875 177.40234375 C115.75675827 177.36173325 116.84554779 177.32112274 117.96733093 177.27928162 C124.31487561 177.05424683 130.64854304 176.94877813 137 177 C137.74897978 185.62705587 138.18393484 194.20586162 138.31640625 202.86328125 C138.33718735 204.02127731 138.35796844 205.17927338 138.37937927 206.37236023 C138.44400802 210.01902167 138.5033504 213.66574601 138.5625 217.3125 C138.60576796 219.80664675 138.64938466 222.30078748 138.69335938 224.79492188 C138.7995985 230.86321756 138.90151455 236.93157378 139 243 C113.22867767 243.18176783 87.47410339 242.72084803 61.70874023 242.20043945 C55.8922418 242.08311298 50.07563116 241.9729042 44.25896168 241.86443424 C39.73882184 241.77921085 35.2187712 241.68983992 30.69873619 241.59924126 C28.55096842 241.55678221 26.40317245 241.51572463 24.25535011 241.4761219 C21.28056166 241.42075621 18.30594342 241.35968199 15.33129883 241.29711914 C14.01703667 241.27445984 14.01703667 241.27445984 12.67622375 241.25134277 C11.86576599 241.2331398 11.05530823 241.21493683 10.22029114 241.19618225 C9.52165357 241.18235536 8.823016 241.16852846 8.10320759 241.15428257 C5.67865858 240.97642773 3.37862189 240.49244261 1 240 C0.26617472 232.97343314 -0.14420606 226.0466942 -0.12025452 218.98347473 C-0.12110894 218.03894257 -0.12196337 217.0944104 -0.12284368 216.12125605 C-0.1244765 212.9907295 -0.11901349 209.86025785 -0.11352539 206.72973633 C-0.11324302 204.47198488 -0.11340223 202.21423333 -0.1139679 199.95648193 C-0.11425391 193.851948 -0.1083888 187.74743387 -0.10139394 181.64290452 C-0.09512783 175.25409945 -0.09455403 168.86529388 -0.09336853 162.47648621 C-0.09061708 151.76125686 -0.08437778 141.04603613 -0.07543945 130.33081055 C-0.06624659 119.29890987 -0.05917494 108.26701116 -0.05493164 97.23510742 C-0.05466892 96.55397539 -0.05440619 95.87284336 -0.05413551 95.17107097 C-0.05283038 91.75369564 -0.05156669 88.3363203 -0.05032361 84.91894495 C-0.03997352 56.612625 -0.0223001 28.30631289 0 0 Z " fill="#9377F5" transform="translate(556,19)"/>
<path d="M0 0 C2.4375 1.5625 2.4375 1.5625 4 4 C4.46387514 8.32950131 4.32098159 11.3191795 2 15 C0.46715928 16.33130055 -1.12579079 17.59434309 -2.75 18.8125 C-8.48090202 23.34725602 -13.3369264 28.43908067 -18.22753906 33.85864258 C-25.23926055 41.59983194 -25.23926055 41.59983194 -29.75 42.625 C-34.74188707 41.66502172 -37.4123615 38.43604814 -41 35 C-42.010625 34.195625 -43.02125 33.39125 -44.0625 32.5625 C-47.18456351 29.83899779 -49.8080589 26.92203872 -52.484375 23.76953125 C-54.03207632 21.91655093 -54.03207632 21.91655093 -56 20 C-56.73244116 16.23315976 -55.97975698 14.96844471 -53.875 11.6875 C-51 9 -51 9 -48.171875 8.5625 C-44.10210982 9.12384692 -42.43416689 10.61095403 -39.375 13.3125 C-38.45460937 14.11300781 -37.53421875 14.91351563 -36.5859375 15.73828125 C-35.73257813 16.48464844 -34.87921875 17.23101562 -34 18 C-32.67789229 19.01479505 -31.34912495 20.02140936 -30 21 C-25.50052973 17.16371696 -21.17471304 13.35657596 -17.375 8.8125 C-12.44496288 3.05321701 -8.08151805 -1.37233325 0 0 Z " fill="#6F61EE" transform="translate(279,85)"/>
<path d="M0 0 C0.99 0.33 1.98 0.66 3 1 C1.64069926 4.00735073 0.2596944 7.00426693 -1.125 10 C-1.50398437 10.83917969 -1.88296875 11.67835938 -2.2734375 12.54296875 C-4.60649772 17.55904822 -7.20640828 21.86628844 -10.62548828 26.21289062 C-12.45849602 28.59612627 -13.91437904 31.12533087 -15.375 33.75 C-20.82760662 43.2711818 -27.08138419 52.21752264 -33.49926758 61.10498047 C-35.46749259 63.83279424 -37.37166317 66.57398709 -39.171875 69.4140625 C-39.77515625 70.26742187 -40.3784375 71.12078125 -41 72 C-41.66 72 -42.32 72 -43 72 C-43.40412109 72.88365234 -43.40412109 72.88365234 -43.81640625 73.78515625 C-44.99507327 75.99078067 -46.26222879 77.59171772 -47.9375 79.4375 C-49.67927191 81.35745829 -51.06355086 83.11016696 -52.36328125 85.36328125 C-54.31757581 88.5116078 -56.7062788 91.08219484 -59.25 93.75 C-62.55830308 97.27376775 -65.69194202 100.78929596 -68.5625 104.6875 C-72.35853466 109.67265396 -76.69803941 114.60742715 -82 118 C-84.95679933 118.22668795 -86.40150821 117.4820847 -88.68701172 115.64111328 C-90.65119021 113.81898652 -92.5180771 111.93126466 -94.375 110 C-95.04547363 109.31591064 -95.71594727 108.63182129 -96.40673828 107.92700195 C-100.36084417 103.8459205 -104.04620685 99.68981287 -107.40234375 95.09765625 C-109.27927592 92.63332233 -111.33438815 90.39892296 -113.4375 88.125 C-118.0728776 83.04179778 -122.04234883 77.61781895 -126 72 C-130.5737364 65.60929983 -135.23810598 59.35418383 -140.23828125 53.2890625 C-142 51 -142 51 -143.29443359 48.46777344 C-145.37585832 45.45617293 -146.54761762 45.09209054 -150.05078125 44.2265625 C-151.05254395 43.96319092 -152.05430664 43.69981934 -153.08642578 43.4284668 C-154.15103027 43.16332275 -155.21563477 42.89817871 -156.3125 42.625 C-169.17361692 39.13205705 -179.78186854 34.45147107 -190.75 26.8125 C-191.3476416 26.39637451 -191.9452832 25.98024902 -192.56103516 25.55151367 C-195.57982267 23.35150731 -197.72044168 21.56799917 -199 18 C-198.34 17.34 -197.68 16.68 -197 16 C-192.62167695 16.28784823 -189.7275218 18.25081896 -186.125 20.625 C-170.63807402 30.51979804 -153.54786002 35.98044801 -136 41 C-139.74287627 43.13181214 -141.78984129 42.95685425 -146 42 C-145.55269531 42.3403125 -145.10539062 42.680625 -144.64453125 43.03125 C-140.6625739 46.22360813 -138.00149553 49.25943317 -135.4453125 53.65234375 C-131.07983782 60.74329046 -125.91040673 67.15889452 -120 73 C-117 77.44827586 -117 77.44827586 -117 80 C-116.34 80 -115.68 80 -115 80 C-114.67 81.32 -114.34 82.64 -114 84 C-113.34 84 -112.68 84 -112 84 C-112 84.66 -112 85.32 -112 86 C-110.515 86.495 -110.515 86.495 -109 87 C-107.47398229 88.86322762 -106.02530088 90.7905346 -104.625 92.75 C-101.66518038 96.87950778 -98.62261659 100.44467659 -95 104 C-92.48681795 106.94513521 -89.98241154 109.89605118 -87.5 112.8671875 C-85.18924441 115.33977233 -85.18924441 115.33977233 -82.1875 114.8203125 C-81.1046875 114.41425781 -81.1046875 114.41425781 -80 114 C-79.9175 113.443125 -79.835 112.88625 -79.75 112.3125 C-78.76104459 109.26322081 -77.15242534 107.34810037 -75 105 C-74.34 105 -73.68 105 -73 105 C-72.79375 104.443125 -72.5875 103.88625 -72.375 103.3125 C-71 101 -71 101 -68.0625 98.5625 C-65.05359695 96.04484643 -63.90146415 94.3465769 -62 91 C-58.68132212 86.27177613 -55.30012578 82.0962546 -50.8125 78.4375 C-46.76283522 75.09280588 -45.13268906 71.75753713 -43 67 C-42.34 66.67 -41.68 66.34 -41 66 C-40.67 65.01 -40.34 64.02 -40 63 C-39.34 62.67 -38.68 62.34 -38 62 C-37.67 61.01 -37.34 60.02 -37 59 C-36.42507813 58.43152344 -35.85015625 57.86304688 -35.2578125 57.27734375 C-32.32350281 54.31765076 -30.16169339 51.03325272 -27.875 47.5625 C-27.43285156 46.90701172 -26.99070312 46.25152344 -26.53515625 45.57617188 C-24.71789895 42.83930552 -23.13589888 40.35082045 -21.9453125 37.27734375 C-21 35 -21 35 -19.17578125 33.1796875 C-16.18652039 30.18505993 -14.28963056 26.77621902 -12.1875 23.125 C-11.7538916 22.38064697 -11.3202832 21.63629395 -10.87353516 20.86938477 C-6.94719258 14.05662238 -3.39413143 7.09171171 0 0 Z " fill="#4D40F3" transform="translate(335,151)"/>
<path d="M0 0 C4.37832305 0.28784823 7.2724782 2.25081896 10.875 4.625 C26.36192598 14.51979804 43.45213998 19.98044801 61 25 C57.18114161 27.17279874 55.2968842 26.71614737 51 26 C50.36578125 26.33 49.7315625 26.66 49.078125 27 C44.18110558 29.35646047 38.01126293 26.3706422 33.140625 24.734375 C25.21984948 21.95300519 17.94871798 18.77653282 11 14 C9.52466797 13.00226563 9.52466797 13.00226563 8.01953125 11.984375 C-0.39366323 6.10711107 -0.39366323 6.10711107 -2 2 C-1.34 1.34 -0.68 0.68 0 0 Z " fill="#7364FD" transform="translate(138,167)"/>
<path d="M0 0 C0.33 0 0.66 0 1 0 C1.33 6.27 1.66 12.54 2 19 C2.66 19 3.32 19 4 19 C4.23074219 19.70125 4.46148437 20.4025 4.69921875 21.125 C8.44445426 32.02023059 12.91761376 38.81750068 22 46 C22.59296875 46.48597656 23.1859375 46.97195312 23.796875 47.47265625 C32.52948463 53.79027428 46.41822193 56.39924338 57 55 C67.59781022 53.15288711 75.5045793 49.53897915 84 43 C84.63808594 42.54367188 85.27617187 42.08734375 85.93359375 41.6171875 C89.26986172 39.10458669 91.15768815 36.40808244 93.05859375 32.78125 C94.5096265 30.03572745 96.20727069 27.53454833 98 25 C98.33 25 98.66 25 99 25 C98.96574511 32.86149697 98.96574511 32.86149697 96.66796875 35.5703125 C95.14087338 36.75186074 93.5711751 37.87773207 92 39 C91.67 39.680625 91.34 40.36125 91 41.0625 C89.4262918 44.11155964 86.89552875 45.23051021 84 47 C83.06414062 47.60521484 83.06414062 47.60521484 82.109375 48.22265625 C80.09388804 49.52002679 78.05705295 50.76968642 76 52 C75.39542969 52.36351562 74.79085937 52.72703125 74.16796875 53.1015625 C63.30148049 59.09528866 51.03115063 60.42162855 39.125 57.3125 C38.43172607 57.13460937 37.73845215 56.95671875 37.02416992 56.7734375 C22.32833865 52.80667443 12.40646875 44.14567624 4.359375 31.3828125 C-1.68414989 20.7892775 -1.1926436 11.78383733 0 0 Z " fill="#464DF2" transform="translate(200,99)"/>
<path d="M0 0 C2.35953094 2.35953094 2.49141413 3.77895617 3 7 C3.66 7 4.32 7 5 7 C5.43570313 7.90621094 5.87140625 8.81242188 6.3203125 9.74609375 C9.47776416 16.22943013 12.65646835 22.38990325 16.93359375 28.23046875 C18 30 18 30 18 33 C19.485 33.495 19.485 33.495 21 34 C22.06231979 36.31210779 22.88646506 38.57410325 23.54174805 41.03222656 C25.93435672 44.26082625 29.51622409 44.46292037 33.26953125 45.171875 C34.11103226 45.33903015 34.95253326 45.5061853 35.8195343 45.67840576 C45.71568479 47.5100764 55.65017493 47.9062008 65.6875 48.25 C67.5762319 48.3266602 69.46490517 48.40477902 71.35351562 48.484375 C75.90184776 48.67297501 80.45050095 48.84215827 85 49 C80.78332134 53.21667866 72.34967038 52.06412348 66.625 52.1875 C58.23420401 52.08942576 49.90012186 51.33759206 41.57714844 50.30664062 C39.94271463 50.11216839 38.30515906 49.94129742 36.66503906 49.80273438 C30.90476291 49.29379431 25.43417072 48.61196729 21.33544922 44.21386719 C17.56515932 39.16596446 14.74695141 33.65049862 12 28 C11.24009766 26.55753906 11.24009766 26.55753906 10.46484375 25.0859375 C9.67869126 23.57430024 8.91883627 22.04856833 8.19140625 20.5078125 C7.21659663 18.45591815 6.2015199 16.44372629 5.15234375 14.4296875 C4.82782227 13.80094727 4.50330078 13.17220703 4.16894531 12.52441406 C3.23412762 10.71523953 2.29491251 8.9083392 1.35546875 7.1015625 C0 4 0 4 0 0 Z " fill="#4C40E4" transform="translate(160,139)"/>
<path d="M0 0 C0.99 0.33 1.98 0.66 3 1 C1.64069926 4.00735073 0.2596944 7.00426693 -1.125 10 C-1.69347656 11.25876953 -1.69347656 11.25876953 -2.2734375 12.54296875 C-4.60649772 17.55904822 -7.20640828 21.86628844 -10.62548828 26.21289062 C-12.45849602 28.59612627 -13.91437904 31.12533087 -15.375 33.75 C-20.82760662 43.2711818 -27.08138419 52.21752264 -33.49926758 61.10498047 C-35.46749259 63.83279424 -37.37166317 66.57398709 -39.171875 69.4140625 C-40.07679688 70.69410156 -40.07679688 70.69410156 -41 72 C-41.66 72 -42.32 72 -43 72 C-43.26941406 72.58910156 -43.53882813 73.17820312 -43.81640625 73.78515625 C-44.99507327 75.99078067 -46.26222879 77.59171772 -47.9375 79.4375 C-49.85966693 81.59702895 -51.20963907 83.37896293 -52.625 85.9375 C-53.07875 86.618125 -53.5325 87.29875 -54 88 C-55.32 88 -56.64 88 -58 88 C-58.2475 88.598125 -58.495 89.19625 -58.75 89.8125 C-60.16370012 92.28647521 -61.65055383 93.43370255 -64 95 C-60.95714563 88.45638599 -56.38534492 82.97910819 -50.8125 78.4375 C-46.76283522 75.09280588 -45.13268906 71.75753713 -43 67 C-42.01 66.505 -42.01 66.505 -41 66 C-40.505 64.515 -40.505 64.515 -40 63 C-39.01 62.505 -39.01 62.505 -38 62 C-37.67 61.01 -37.34 60.02 -37 59 C-36.42507813 58.43152344 -35.85015625 57.86304688 -35.2578125 57.27734375 C-32.32350281 54.31765076 -30.16169339 51.03325272 -27.875 47.5625 C-27.43285156 46.90701172 -26.99070312 46.25152344 -26.53515625 45.57617188 C-24.71789895 42.83930552 -23.13589888 40.35082045 -21.9453125 37.27734375 C-21 35 -21 35 -19.17578125 33.1796875 C-16.18652039 30.18505993 -14.28963056 26.77621902 -12.1875 23.125 C-11.5370874 22.00847046 -11.5370874 22.00847046 -10.87353516 20.86938477 C-6.94719258 14.05662238 -3.39413143 7.09171171 0 0 Z " fill="#6B49F0" transform="translate(335,151)"/>
<path d="M0 0 C0 0.99 0 1.98 0 3 C-4.35155672 5.20576612 -8.75319786 7.28030298 -13.1875 9.3125 C-17.91548713 11.4843463 -22.48313919 13.78233439 -27 16.375 C-31.11850409 18.68973474 -34.28799323 19.79057748 -39 20 C-35.9056662 15.42038598 -33.03606979 14.06838581 -28 12 C-27.37480469 11.36320312 -26.74960938 10.72640625 -26.10546875 10.0703125 C-20.0912159 4.15648317 -8.40918448 0 0 0 Z " fill="#715CF8" transform="translate(190,23)"/>
<path d="M0 0 C0.33 0 0.66 0 1 0 C0.96574511 7.86149697 0.96574511 7.86149697 -1.33203125 10.5703125 C-2.85912662 11.75186074 -4.4288249 12.87773207 -6 14 C-6.495 15.0209375 -6.495 15.0209375 -7 16.0625 C-8.5737082 19.11155964 -11.10447125 20.23051021 -14 22 C-14.62390625 22.40347656 -15.2478125 22.80695313 -15.890625 23.22265625 C-17.90611196 24.52002679 -19.94294705 25.76968642 -22 27 C-22.60457031 27.36351562 -23.20914063 27.72703125 -23.83203125 28.1015625 C-33.43410194 33.39786254 -45.28374262 35.67906435 -56 33 C-56 32.67 -56 32.34 -56 32 C-54.69546875 31.82984375 -53.3909375 31.6596875 -52.046875 31.484375 C-36.81567102 29.41435504 -25.2080148 26.87441323 -13 17 C-12.113125 16.32710937 -11.22625 15.65421875 -10.3125 14.9609375 C-7.82905841 12.85504616 -6.49627374 10.67667578 -4.9765625 7.81640625 C-3.49913159 5.06838476 -1.80139933 2.54680594 0 0 Z " fill="#584FF0" transform="translate(298,124)"/>
<path d="M0 0 C2.35953094 2.35953094 2.49141413 3.77895617 3 7 C3.66 7 4.32 7 5 7 C5.43570313 7.90621094 5.87140625 8.81242188 6.3203125 9.74609375 C9.47776416 16.22943013 12.65646835 22.38990325 16.93359375 28.23046875 C18 30 18 30 18 33 C19.485 33.495 19.485 33.495 21 34 C22.0625 36.3125 22.0625 36.3125 23 39 C23.6699281 41.11621373 23.6699281 41.11621373 25 43 C27.39459647 44.12891757 27.39459647 44.12891757 30.125 44.75 C31.03507812 44.99234375 31.94515625 45.2346875 32.8828125 45.484375 C33.58148438 45.65453125 34.28015625 45.8246875 35 46 C31.40735548 47.19754817 28.77282526 47.33094958 25 47 C21.24810264 43.96382603 18.96946203 39.98951347 16.5625 35.875 C16.16562988 35.20412354 15.76875977 34.53324707 15.35986328 33.84204102 C12.82181041 29.5119627 10.43075781 25.14162595 8.26171875 20.61328125 C7.25450843 18.52713976 6.21431249 16.47201328 5.14453125 14.41796875 C4.65944092 13.47739624 4.65944092 13.47739624 4.16455078 12.51782227 C3.23168307 10.71059504 2.29370155 8.90601023 1.35546875 7.1015625 C0 4 0 4 0 0 Z " fill="#574AF0" transform="translate(160,139)"/>
<path d="M0 0 C0 0.99 0 1.98 0 3 C-0.96679688 3.03738281 -1.93359375 3.07476562 -2.9296875 3.11328125 C-13.89399896 3.6669247 -22.54802977 5.28943465 -32 11 C-32.66 11 -33.32 11 -34 11 C-34 11.66 -34 12.32 -34 13 C-35.84037223 14.4088974 -37.74971704 15.72840298 -39.6875 17 C-40.74324219 17.70125 -41.79898438 18.4025 -42.88671875 19.125 C-45.56446603 20.73769598 -48.06504244 21.95452347 -51 23 C-49.55142899 19.30337344 -47.88669626 18.06053772 -44.4375 16.1875 C-40.75213595 14.10284963 -37.50997946 11.8884677 -34.25 9.1875 C-30.8854952 6.47438245 -28.45467583 5.11422246 -24 5 C-24 4.34 -24 3.68 -24 3 C-15.95073076 -0.11584616 -8.56674915 -0.33328851 0 0 Z " fill="#8D5CF5" transform="translate(257,51)"/>
<path d="M0 0 C2.49739056 4.43177836 2.38391265 8.2598523 2.375 13.25 C2.37411377 14.13155762 2.37322754 15.01311523 2.37231445 15.92138672 C2.26739768 21.83613615 1.61783649 27.38499169 0.1875 33.125 C0.02233887 33.79305664 -0.14282227 34.46111328 -0.31298828 35.14941406 C-1.32808911 38.78391431 -1.74779991 39.83186661 -5 42 C-5 29.79 -5 17.58 -5 5 C-4.67 5 -4.34 5 -4 5 C-2.93690433 10.17317421 -2.88306062 15.12369336 -2.9375 20.375 C-2.94201172 21.20644531 -2.94652344 22.03789063 -2.95117188 22.89453125 C-2.96286836 24.92971897 -2.98080065 26.96486923 -3 29 C-2.34 29 -1.68 29 -1 29 C-1.01160156 28.30132812 -1.02320313 27.60265625 -1.03515625 26.8828125 C-1.04417969 25.97273438 -1.05320312 25.06265625 -1.0625 24.125 C-1.07410156 23.22007813 -1.08570313 22.31515625 -1.09765625 21.3828125 C-1 19 -1 19 0 17 C0.07194869 14.11629667 0.09291708 11.25760336 0.0625 8.375 C0.05798828 7.57320313 0.05347656 6.77140625 0.04882812 5.9453125 C0.03703168 3.96350994 0.01909605 1.98174567 0 0 Z " fill="#997EF2" transform="translate(339,92)"/>
<path d="M0 0 C0 0.66 0 1.32 0 2 C-11.32253524 6.83069379 -22.55556065 10.3023585 -35 10 C-34.67 8.68 -34.34 7.36 -34 6 C-32.54980469 5.83564453 -32.54980469 5.83564453 -31.0703125 5.66796875 C-24.2078857 4.83224747 -17.72545516 3.91054885 -11.1484375 1.68359375 C-7.32374878 0.46664734 -4.02969675 0 0 0 Z " fill="#542FF3" transform="translate(353,202)"/>
<path d="M0 0 C1 2 1 2 0.8684082 4.4140625 C0.76378402 7.01749688 0.76378402 7.01749688 2.29760742 8.7734375 C2.89420166 9.30195312 3.4907959 9.83046875 4.10546875 10.375 C4.75966797 10.96796875 5.41386719 11.5609375 6.08789062 12.171875 C6.78076172 12.77515625 7.47363281 13.3784375 8.1875 14 C9.53577567 15.20764213 10.88344379 16.41596296 12.23046875 17.625 C12.87910889 18.19710205 13.52774902 18.7692041 14.19604492 19.35864258 C15.77939699 20.79928082 17.27347054 22.33678228 18.75 23.88671875 C21.70209303 26.65943112 24.03627544 26.76683973 28 27 C28.226875 26.4225 28.45375 25.845 28.6875 25.25 C30.33488275 22.42591529 32.43454838 21.0023037 35 19 C35.556875 18.2575 36.11375 17.515 36.6875 16.75 C37.120625 16.1725 37.55375 15.595 38 15 C38.66 15 39.32 15 40 15 C38.47238013 18.62809719 36.29392861 20.94346298 33.5 23.6875 C32.7059375 24.47511719 31.911875 25.26273438 31.09375 26.07421875 C28.71700302 28.26029386 27.53596762 28.89791093 24.375 29.5 C19.23585872 28.73864574 16.654332 25.49992361 13 22 C11.989375 21.195625 10.97875 20.39125 9.9375 19.5625 C6.81543649 16.83899779 4.1919411 13.92203872 1.515625 10.76953125 C-0.03207632 8.91655093 -0.03207632 8.91655093 -2 7 C-2.25 4.5 -2.25 4.5 -2 2 C-1.34 1.34 -0.68 0.68 0 0 Z " fill="#6249F3" transform="translate(225,98)"/>
<path d="M0 0 C2.29104056 0.91641622 3.75057101 1.69118315 5.3125 3.625 C6.55675494 7.92333525 5.56676742 12.09360049 4.3125 16.3125 C2.19374723 19.03661071 0.25738999 19.87471982 -3 21 C-6.83010748 20.99356284 -10.54745999 20.72627 -14 19 C-16.4169671 20.22733488 -16.4169671 20.22733488 -19 21.9375 C-23.79954442 25 -23.79954442 25 -26 25 C-26 24.01 -26 23.02 -26 22 C-19.26051578 16.88602824 -13.5055605 16.62497982 -5.35546875 17.21484375 C-1.95696562 17.29600831 -1.95696562 17.29600831 0.42578125 15.25 C2.72234634 11.96756454 2.52998185 8.82344047 2 5 C1.11785113 2.11785113 1.11785113 2.11785113 0 0 Z " fill="#7147F2" transform="translate(345,13)"/>
<path d="M0 0 C11.37160201 3.12719055 19.75942696 11.20297136 26 21 C26.35352049 22.66250177 26.6909177 24.32866609 27 26 C27.66 26.33 28.32 26.66 29 27 C30.61037909 32.18899929 31.22541675 36.58999807 31 42 C30.67 42 30.34 42 30 42 C29.61908203 40.17662109 29.61908203 40.17662109 29.23046875 38.31640625 C28.88350358 36.73161937 28.53580958 35.14699194 28.1875 33.5625 C28.02185547 32.76005859 27.85621094 31.95761719 27.68554688 31.13085938 C27.22300247 29.06250042 26.62023759 27.02666263 26 25 C25.01 24.67 24.02 24.34 23 24 C22.03515625 22.25 22.03515625 22.25 21.0625 20 C17.12177346 12.46696481 9.62704147 8.293632 2.62109375 3.86328125 C1.75613281 3.24839844 0.89117187 2.63351563 0 2 C0 1.34 0 0.68 0 0 Z " fill="#9A66F9" transform="translate(273,57)"/>
<path d="M0 0 C-1 2 -1 2 -4.26953125 3.32421875 C-18.85836009 7.93373995 -32.88875458 7.13988842 -48 6 C-48 5.67 -48 5.34 -48 5 C-47.43192627 4.98018066 -46.86385254 4.96036133 -46.27856445 4.93994141 C-27.98643064 4.48927809 -27.98643064 4.48927809 -10.125 0.875 C-6.63526569 -0.10212561 -3.60641089 -0.14720044 0 0 Z " fill="#6952F1" transform="translate(271,182)"/>
<path d="M0 0 C2.5 1.5625 2.5 1.5625 5 4 C5.54171409 8.33371274 5.33260582 11.3235347 3 15 C1.26453048 16.56467728 -0.53506169 18.05961934 -2.375 19.5 C-5.78634327 22.18493864 -8.99327803 24.86502923 -12 28 C-12.66 27.67 -13.32 27.34 -14 27 C-13.236875 26.278125 -12.47375 25.55625 -11.6875 24.8125 C-9.00885792 22.23041254 -9.00885792 22.23041254 -7.625 19.625 C-6.03845995 17.06212761 -4.53375512 15.61923305 -2.3125 13.625 C0.51506193 10.89863503 0.95411465 10.34414009 1.5 6.25 C1.09316411 2.99899824 1.09316411 2.99899824 0 0 Z " fill="#6E4EF0" transform="translate(278,85)"/>
<path d="M0 0 C4.16916148 0.63426946 7.52200237 2.05011372 11.3125 3.875 C16.1517164 6.16262957 20.95462354 8.2192789 26 10 C26 10.66 26 11.32 26 12 C29.3 12.66 32.6 13.32 36 14 C36 14.66 36 15.32 36 16 C23.44385901 13.33445052 10.03641467 9.35007941 0 1 C0 0.67 0 0.34 0 0 Z " fill="#5B43F3" transform="translate(148,179)"/>
<path d="M0 0 C0 0.99 0 1.98 0 3 C-1.29093133 3.43966502 -2.58280836 3.87655299 -3.875 4.3125 C-5.10476562 4.73015625 -5.10476562 4.73015625 -6.359375 5.15625 C-8.08351266 5.70715789 -9.82404568 6.20975708 -11.578125 6.65625 C-16.99192597 8.05121712 -20.47245782 9.69831167 -24.4296875 13.6953125 C-26.24966103 15.20742981 -27.69303703 15.59053904 -30 16 C-29.70068359 14.125 -29.70068359 14.125 -29 12 C-26.54071582 10.46818309 -24.23351537 9.21766183 -21.625 8 C-20.54484619 7.47889648 -20.54484619 7.47889648 -19.44287109 6.94726562 C-4.80864505 0 -4.80864505 0 0 0 Z " fill="#7E5EF8" transform="translate(225,14)"/>
<path d="M0 0 C0.99 0.33 1.98 0.66 3 1 C2.34773438 1.70125 1.69546875 2.4025 1.0234375 3.125 C-4.94507914 9.59318288 -4.94507914 9.59318288 -10.3125 16.5625 C-12.56185139 19.67991094 -14.23309029 20.90957877 -18 22 C-19.36365283 22.95824253 -20.70794169 23.94721175 -22 25 C-20.63055898 22.05043472 -19.12169591 19.47531189 -17 17 C-16.34 17 -15.68 17 -15 17 C-14.77183594 16.4328125 -14.54367187 15.865625 -14.30859375 15.28125 C-12.64902847 12.3881571 -10.59053518 10.66794794 -8.0625 8.5 C-4.97515736 5.84461251 -2.31421009 3.36056911 0 0 Z " fill="#573FF5" transform="translate(277,239)"/>
<path d="M0 0 C1.4540625 0.0309375 1.4540625 0.0309375 2.9375 0.0625 C-0.00078597 2.56548434 -2.24152761 3.53180939 -6.0625 4.0625 C-6.01867187 4.6915625 -5.97484375 5.320625 -5.9296875 5.96875 C-5.94288254 10.34950383 -6.16523324 13.07087123 -9.1796875 16.40234375 C-13.2690616 19.66049492 -17.55922123 22.41398892 -22.0625 25.0625 C-21.72950329 22.04514206 -21.07433726 21.07394059 -18.84765625 18.921875 C-17.94917969 18.22578125 -17.05070312 17.5296875 -16.125 16.8125 C-15.22910156 16.10609375 -14.33320313 15.3996875 -13.41015625 14.671875 C-11.0625 13.0625 -11.0625 13.0625 -9.0625 13.0625 C-9.165625 12.010625 -9.26875 10.95875 -9.375 9.875 C-9.0625 6.0625 -9.0625 6.0625 -6.625 3.1875 C-5.779375 2.48625 -4.93375 1.785 -4.0625 1.0625 C-3.0625 0.0625 -3.0625 0.0625 0 0 Z " fill="#774FF6" transform="translate(337.0625,10.9375)"/>
<path d="M0 0 C0.33 0 0.66 0 1 0 C0.96574511 7.86149697 0.96574511 7.86149697 -1.33203125 10.5703125 C-2.85912662 11.75186074 -4.4288249 12.87773207 -6 14 C-6.33 14.680625 -6.66 15.36125 -7 16.0625 C-9.09448579 20.12056622 -13.97004548 22.14002099 -18 24 C-15.8607824 20.4620632 -14.24728407 18.20091831 -11 15.5625 C-8.04243936 13.03625029 -6.7001808 11.13690354 -4.94140625 7.78125 C-3.4903735 5.03572745 -1.79272931 2.53454833 0 0 Z " fill="#694DF0" transform="translate(298,124)"/>
<path d="M0 0 C2.625 -0.4375 2.625 -0.4375 6 0 C10.16747316 3.52396627 13.08568405 8.44638133 16 13 C17.08086248 14.62664452 18.1643263 16.25156268 19.25 17.875 C20.16666667 19.25 21.08333333 20.625 22 22 C21.01 22 20.02 22 19 22 C17.03483959 19.81287117 15.26312094 17.65319504 13.5 15.3125 C13.01402344 14.68666016 12.52804688 14.06082031 12.02734375 13.41601562 C9.95018817 10.71344944 8.04336486 8.07439752 6.32421875 5.125 C4.6283687 2.4036359 3.01433643 1.89615408 0 1 C0 0.67 0 0.34 0 0 Z " fill="#5440EB" transform="translate(185,194)"/>
<path d="M0 0 C2.35953094 2.35953094 2.49141413 3.77895617 3 7 C3.66 7 4.32 7 5 7 C11.68715847 20.20525956 11.68715847 20.20525956 14.5 26.1875 C14.8196875 26.86167969 15.139375 27.53585938 15.46875 28.23046875 C16 30 16 30 15 33 C12.31040079 28.01201602 9.64330157 23.0126799 7 18 C6.47237061 17.00009033 6.47237061 17.00009033 5.93408203 15.97998047 C4.946053 14.09579922 3.97089578 12.20555639 3 10.3125 C2.13375 8.63607422 2.13375 8.63607422 1.25 6.92578125 C0 4 0 4 0 0 Z " fill="#5238ED" transform="translate(160,139)"/>
<path d="M0 0 C0.59683594 0.32871094 1.19367188 0.65742188 1.80859375 0.99609375 C10.4904545 5.75628189 19.24286895 10.38017705 28 15 C28 15.33 28 15.66 28 16 C20.92596166 15.6784528 15.02613423 12.58336373 9 9 C8.67 8.34 8.34 7.68 8 7 C6.24063735 5.93489565 4.4283566 5.02623787 2.59375 4.09765625 C1 3 1 3 0 0 Z " fill="#4F53F5" transform="translate(140,167)"/>
<path d="M0 0 C0.66 0 1.32 0 2 0 C3.66666667 1.66666667 5.33333333 3.33333333 7 5 C9.16620544 6.29519995 9.16620544 6.29519995 11 7 C10.67 7.66 10.34 8.32 10 9 C10.99 9.99 11.98 10.98 13 12 C8.58978696 12.41443491 6.65701759 11.4485562 3.25 8.6875 C2.47140625 8.07261719 1.6928125 7.45773438 0.890625 6.82421875 C-1 5 -1 5 -2 2 C-1.34 1.34 -0.68 0.68 0 0 Z " fill="#6D59FE" transform="translate(138,167)"/>
<path d="M0 0 C0 0.66 0 1.32 0 2 C-1.2065625 3.175625 -1.2065625 3.175625 -2.4375 4.375 C-5.36388597 7.24431535 -5.36388597 7.24431535 -6 11 C-5.35336433 13.7004039 -5.35336433 13.7004039 -4 16 C-3.01 16.33 -2.02 16.66 -1 17 C-1.33 17.99 -1.66 18.98 -2 20 C-5.65316671 18.75023244 -6.78065836 18.32901247 -9 15 C-9.54531842 11.93473649 -9.54325893 9.06591671 -9 6 C-6.5132751 2.85887381 -4.22266288 0 0 0 Z " fill="#6C4EF3" transform="translate(360,52)"/>
<path d="M0 0 C0.48984375 0.21914062 0.9796875 0.43828125 1.484375 0.6640625 C10.71679871 4.57988359 20.38421988 7.20624496 30 10 C27.78446629 11.35896469 26.54893249 12.07317806 23.92871094 11.72387695 C23.20458008 11.48113037 22.48044922 11.23838379 21.734375 10.98828125 C20.92613281 10.72466797 20.11789063 10.46105469 19.28515625 10.18945312 C18.44855469 9.90005859 17.61195313 9.61066406 16.75 9.3125 C15.92886719 9.04244141 15.10773438 8.77238281 14.26171875 8.49414062 C9.12553066 6.78886106 4.05625891 4.9281356 -1 3 C-0.67 2.01 -0.34 1.02 0 0 Z " fill="#5356F1" transform="translate(169,182)"/>
<path d="M0 0 C-1.32 0.33 -2.64 0.66 -4 1 C-4 1.66 -4 2.32 -4 3 C-4.71027344 3.42539063 -5.42054688 3.85078125 -6.15234375 4.2890625 C-9.42122034 6.25307889 -11.92259635 8.66552885 -14.5625 11.375 C-15.49191406 12.31085938 -16.42132813 13.24671875 -17.37890625 14.2109375 C-20.02347429 16.92476051 -20.02347429 16.92476051 -22.15234375 19.8515625 C-22.76207031 20.56054688 -23.37179688 21.26953125 -24 22 C-24.99 22 -25.98 22 -27 22 C-27 21.34 -27 20.68 -27 20 C-25.49609375 18.5546875 -25.49609375 18.5546875 -23.4375 16.875 C-20.48328684 14.37848183 -17.91304337 11.84565204 -15.4375 8.875 C-11.34528294 4.08365701 -6.85380577 -1.03845542 0 0 Z " fill="#704DFB" transform="translate(277,85)"/>
<path d="M0 0 C5.52320607 -0.30126579 9.57352477 0.29976127 14.75390625 2.203125 C16.96578042 2.98785949 19.15585273 3.58037534 21.4375 4.125 C25 5 25 5 27 6 C27 6.99 27 7.98 27 9 C28.32 9.66 29.64 10.32 31 11 C28.12578994 10.58939856 26.12683612 10.07676923 23.625 8.5625 C20.48789316 6.6951745 17.52681978 5.94048528 14 5 C12.45544303 4.48780156 10.9138371 3.96663501 9.375 3.4375 C6.26959132 2.3864386 3.24550879 1.52346916 0 1 C0 0.67 0 0.34 0 0 Z " fill="#AC91FC" transform="translate(263,19)"/>
<path d="M0 0 C5.34977571 3.83788257 8.81439124 8.26834784 12.4375 13.6875 C12.88657715 14.35338135 13.3356543 15.0192627 13.79833984 15.70532227 C17 20.61201221 17 20.61201221 17 24 C16.01 23.67 15.02 23.34 14 23 C14 21.68 14 20.36 14 19 C13.34 19 12.68 19 12 19 C10.64161985 17.13002213 9.3625437 15.20205007 8.125 13.25 C6.14725801 10.13674835 4.38476177 7.37544228 1.7421875 4.796875 C0 3 0 3 0 0 Z " fill="#7B5AF5" transform="translate(320,39)"/>
<path d="M0 0 C0 0.99 0 1.98 0 3 C-2 4 -4 5 -6 6 C-7.051875 6.5775 -8.10375 7.155 -9.1875 7.75 C-12 9 -12 9 -15 8 C-14.5625 5.6875 -14.5625 5.6875 -13 3 C-8.71247616 0.85204285 -4.78199666 0 0 0 Z " fill="#5F41F2" transform="translate(190,23)"/>
<path d="M0 0 C0.33 0 0.66 0 1 0 C1.33 6.27 1.66 12.54 2 19 C2.66 19 3.32 19 4 19 C4.64633275 20.77065111 5.2920483 22.54152753 5.9375 24.3125 C6.47697266 25.79169922 6.47697266 25.79169922 7.02734375 27.30078125 C7.70885965 29.1920563 8.3642811 31.09284329 9 33 C8.34 33 7.68 33 7 33 C4 27.375 4 27.375 4 24 C3.01 23.67 2.02 23.34 1 23 C-1.77419539 18.46284819 -1.02585758 13.76636548 -0.625 8.6875 C-0.56828125 7.85154297 -0.5115625 7.01558594 -0.453125 6.15429688 C-0.31240504 4.10213072 -0.1576007 2.05093882 0 0 Z " fill="#5538C8" transform="translate(200,99)"/>
<path d="M0 0 C0.33 0 0.66 0 1 0 C2.06309567 5.17317421 2.11693938 10.12369336 2.0625 15.375 C2.05798828 16.20644531 2.05347656 17.03789063 2.04882812 17.89453125 C2.03713164 19.92971897 2.01919935 21.96486923 2 24 C2.66 24 3.32 24 4 24 C3.719172 25.98073365 3.42503386 27.95958448 3.125 29.9375 C2.88136719 31.59072266 2.88136719 31.59072266 2.6328125 33.27734375 C2.31957031 34.62505859 2.31957031 34.62505859 2 36 C1.01 36.495 1.01 36.495 0 37 C0 24.79 0 12.58 0 0 Z " fill="#9F85F6" transform="translate(334,97)"/>
<path d="M0 0 C0.66 0.33 1.32 0.66 2 1 C1.360625 1.61875 0.72125 2.2375 0.0625 2.875 C-5.29957425 8.23707425 -10.54503534 13.85668886 -15 20 C-15.66 19.67 -16.32 19.34 -17 19 C-12.0427705 11.65195409 -6.90425531 5.57774329 0 0 Z " fill="#946DFE" transform="translate(187,33)"/>
<path d="M0 0 C-5.36190101 2.61407872 -10.03435204 4.49228528 -16 5 C-16 3.68 -16 2.36 -16 1 C-11.37235247 -1.23918429 -3.98931934 -3.98931934 0 0 Z " fill="#4F39ED" transform="translate(345,181)"/>
<path d="M0 0 C0.99 0.33 1.98 0.66 3 1 C1.02 4.96 -0.96 8.92 -3 13 C-3.66 13 -4.32 13 -5 13 C-5.33 14.32 -5.66 15.64 -6 17 C-6.66 16.67 -7.32 16.34 -8 16 C-5.36 10.72 -2.72 5.44 0 0 Z " fill="#7350F2" transform="translate(335,151)"/>
<path d="M0 0 C0.66 0 1.32 0 2 0 C0.47238013 3.62809719 -1.70607139 5.94346298 -4.5 8.6875 C-5.69109375 9.86892578 -5.69109375 9.86892578 -6.90625 11.07421875 C-10.32304408 14.21690435 -12.44456278 14.09903124 -17 14 C-17.33 13.34 -17.66 12.68 -18 12 C-15.36 12 -12.72 12 -10 12 C-9.773125 11.4225 -9.54625 10.845 -9.3125 10.25 C-7.66511725 7.42591529 -5.56545162 6.0023037 -3 4 C-2.443125 3.2575 -1.88625 2.515 -1.3125 1.75 C-0.879375 1.1725 -0.44625 0.595 0 0 Z " fill="#5A40E9" transform="translate(263,113)"/>
<path d="M0 0 C0 0.66 0 1.32 0 2 C-1.5552912 2.70365602 -3.11964827 3.38729378 -4.6875 4.0625 C-5.55761719 4.44535156 -6.42773438 4.82820312 -7.32421875 5.22265625 C-10.32213864 6.0935848 -12.03280153 5.85006226 -15 5 C-15 4.34 -15 3.68 -15 3 C-9.8589823 1.20662173 -5.45981377 0 0 0 Z " fill="#5C45F4" transform="translate(353,202)"/>
<path d="M0 0 C0.66 0 1.32 0 2 0 C2.27263672 0.95712891 2.27263672 0.95712891 2.55078125 1.93359375 C2.80214844 2.75988281 3.05351562 3.58617188 3.3125 4.4375 C3.55613281 5.26121094 3.79976562 6.08492187 4.05078125 6.93359375 C4.36402344 7.61550781 4.67726562 8.29742187 5 9 C5.99 9.33 6.98 9.66 8 10 C13 15.46511628 13 15.46511628 13 18 C6.60212915 15.6304182 3.53555707 9.51915988 0.69921875 3.734375 C0 2 0 2 0 0 Z " fill="#5C43F5" transform="translate(202,123)"/>
<path d="M0 0 C0.99 0.33 1.98 0.66 3 1 C3 1.66 3 2.32 3 3 C-1.38461538 6 -1.38461538 6 -4 6 C-4.33 6.99 -4.66 7.98 -5 9 C-7.31 9.33 -9.62 9.66 -12 10 C-8.81481983 5.28593334 -6.10470746 4.02261994 -1 2 C-0.67 1.34 -0.34 0.68 0 0 Z " fill="#7D6AFD" transform="translate(163,33)"/>
<path d="M0 0 C-1 2 -1 2 -3.07421875 2.88671875 C-8.07144978 4.41800778 -11.81040552 5.50225103 -17 4 C-11.6013038 0.4008692 -6.3999927 -0.26122419 0 0 Z " fill="#7B59F3" transform="translate(271,182)"/>
<path d="M0 0 C0.66 0 1.32 0 2 0 C0.51251262 3.78557181 -1.55349866 5.41567193 -4.875 7.6875 C-5.73867187 8.28949219 -6.60234375 8.89148438 -7.4921875 9.51171875 C-9.74473543 10.84851121 -11.44395924 11.55417894 -14 12 C-12.52685552 8.13299575 -10.56422429 6.85397337 -7 4.875 C-3.24718308 2.77510616 -3.24718308 2.77510616 0 0 Z " fill="#9F61F7" transform="translate(220,62)"/>
<path d="M0 0 C2.29104056 0.91641622 3.75057101 1.69118315 5.3125 3.625 C6.36457706 7.25944801 5.61928668 10.28427995 5 14 C4.01 14.33 3.02 14.66 2 15 C2.02320313 14.33613281 2.04640625 13.67226563 2.0703125 12.98828125 C2.23624305 6.27138984 2.23624305 6.27138984 0 0 Z " fill="#7F49E8" transform="translate(345,13)"/>
<path d="M0 0 C5.44693314 -0.09688221 10.63904667 -0.12862175 16 1 C15.01 1.495 15.01 1.495 14 2 C14 2.66 14 3.32 14 4 C11.85270859 3.71926927 9.70716807 3.42511501 7.5625 3.125 C6.36753906 2.96257812 5.17257813 2.80015625 3.94140625 2.6328125 C2.97074219 2.42398438 2.00007812 2.21515625 1 2 C0.67 1.34 0.34 0.68 0 0 Z " fill="#4947E6" transform="translate(188,185)"/>
<path d="M0 0 C2.79387762 0.61620855 5.58480926 1.24249695 8.375 1.875 C9.1690625 2.04902344 9.963125 2.22304687 10.78125 2.40234375 C11.54179687 2.57636719 12.30234375 2.75039062 13.0859375 2.9296875 C13.7876709 3.08679199 14.4894043 3.24389648 15.21240234 3.40576172 C17 4 17 4 19 6 C15.37 6 11.74 6 8 6 C8 5.34 8 4.68 8 4 C5.36 3.34 2.72 2.68 0 2 C0 1.34 0 0.68 0 0 Z " fill="#4143F0" transform="translate(229,150)"/>
<path d="M0 0 C0.99 0.33 1.98 0.66 3 1 C1.28032649 4.02990095 -0.29238306 6.76327296 -3 9 C-3.66 9 -4.32 9 -5 9 C-4.5206753 4.68607774 -3.2542015 2.83430453 0 0 Z " fill="#6B55F9" transform="translate(104,129)"/>
<path d="M0 0 C-2.93511667 1.95674445 -5.68554074 3.21589141 -8.9375 4.5625 C-9.97777344 4.99691406 -11.01804688 5.43132813 -12.08984375 5.87890625 C-14.40333432 6.77014356 -16.5830043 7.48165634 -19 8 C-16.85946942 5.65879468 -14.85334961 4.24763409 -12 2.875 C-11.319375 2.54242187 -10.63875 2.20984375 -9.9375 1.8671875 C-6.45861862 0.31010753 -3.77569727 -0.10204587 0 0 Z " fill="#9C85F8" transform="translate(226,22)"/>
<path d="M0 0 C0.66 0.33 1.32 0.66 2 1 C1.34 3.31 0.68 5.62 0 8 C-0.66 8 -1.32 8 -2 8 C-2.33 10.31 -2.66 12.62 -3 15 C-3.66 14.67 -4.32 14.34 -5 14 C-4.67 11.36 -4.34 8.72 -4 6 C-3.01 6 -2.02 6 -1 6 C-0.67 4.02 -0.34 2.04 0 0 Z " fill="#6141CD" transform="translate(204,83)"/>
<path d="M0 0 C5.61 0.66 11.22 1.32 17 2 C17 2.33 17 2.66 17 3 C14.73044814 3.22185844 12.45926245 3.42705515 10.1875 3.625 C8.29064453 3.79902344 8.29064453 3.79902344 6.35546875 3.9765625 C3 4 3 4 0 2 C0 1.34 0 0.68 0 0 Z " fill="#6259DD" transform="translate(200,192)"/>
<path d="M0 0 C0.33 0.66 0.66 1.32 1 2 C0.06421005 4.35981813 -0.93347808 6.69631264 -2 9 C-2.66 9 -3.32 9 -4 9 C-4.33 10.98 -4.66 12.96 -5 15 C-5.66 14.67 -6.32 14.34 -7 14 C-6.2169216 11.85101768 -5.42328757 9.70587905 -4.625 7.5625 C-4.18414062 6.36753906 -3.74328125 5.17257813 -3.2890625 3.94140625 C-2 1 -2 1 0 0 Z " fill="#7748EC" transform="translate(208,74)"/>
<path d="M0 0 C2 2 2 2 2 5 C-1.3 5.33 -4.6 5.66 -8 6 C-8 5.34 -8 4.68 -8 4 C-5.36 2.68 -2.72 1.36 0 0 Z " fill="#6B50F9" transform="translate(345,175)"/>
<path d="M0 0 C0.66 0.66 1.32 1.32 2 2 C1.9765625 4.6015625 1.9765625 4.6015625 1.625 7.625 C1.51414063 8.62789062 1.40328125 9.63078125 1.2890625 10.6640625 C1.19367188 11.43492188 1.09828125 12.20578125 1 13 C0.34 13 -0.32 13 -1 13 C-1.2236337 11.58566794 -1.42826476 10.16832382 -1.625 8.75 C-1.74101562 7.96109375 -1.85703125 7.1721875 -1.9765625 6.359375 C-2.00319395 3.67847541 -1.36592084 2.27305911 0 0 Z " fill="#7453EA" transform="translate(199,97)"/>
<path d="M0 0 C1.79323253 0.28187936 3.58457126 0.5758281 5.375 0.875 C6.37273437 1.03742188 7.37046875 1.19984375 8.3984375 1.3671875 C11 2 11 2 13 4 C8.02398374 5.71050559 4.57383705 4.00885647 0 2 C0 1.34 0 0.68 0 0 Z " fill="#5E5BEE" transform="translate(186,189)"/>
<path d="M0 0 C0.99 0.99 1.98 1.98 3 3 C2.55090939 4.48199902 2.09043436 5.96055236 1.625 7.4375 C1.24214844 8.67306641 1.24214844 8.67306641 0.8515625 9.93359375 C0 12 0 12 -2 13 C-1.48041715 8.62065881 -0.94324258 4.31196609 0 0 Z " fill="#907BF4" transform="translate(333,130)"/>
<path d="M0 0 C-1.62170379 1.00533667 -3.24747237 2.00411907 -4.875 3 C-5.77992188 3.556875 -6.68484375 4.11375 -7.6171875 4.6875 C-10 6 -10 6 -12 6 C-12.33 6.66 -12.66 7.32 -13 8 C-13.33 7.01 -13.66 6.02 -14 5 C-4.11764706 -2.05882353 -4.11764706 -2.05882353 0 0 Z " fill="#9355EE" transform="translate(235,56)"/>
<path d="M0 0 C0.66 0.33 1.32 0.66 2 1 C0.56665422 2.62866544 -0.87182979 4.25280994 -2.3125 5.875 C-3.51326172 7.23238281 -3.51326172 7.23238281 -4.73828125 8.6171875 C-7 11 -7 11 -10 13 C-8.63055898 10.05043472 -7.12169591 7.47531189 -5 5 C-4.34 5 -3.68 5 -3 5 C-2.690625 4.360625 -2.38125 3.72125 -2.0625 3.0625 C-1 1 -1 1 0 0 Z " fill="#6159E5" transform="translate(265,251)"/>
<path d="M0 0 C0 0.66 0 1.32 0 2 C-1.78398614 3.28006797 -3.62853906 4.47660351 -5.5 5.625 C-7.03140625 6.57246094 -7.03140625 6.57246094 -8.59375 7.5390625 C-9.3878125 8.02117187 -10.181875 8.50328125 -11 9 C-11.33 8.01 -11.66 7.02 -12 6 C-10.37829621 4.99466333 -8.75252763 3.99588093 -7.125 3 C-5.76761719 2.1646875 -5.76761719 2.1646875 -4.3828125 1.3125 C-2 0 -2 0 0 0 Z " fill="#CECAFC" transform="translate(300,168)"/>
<path d="M0 0 C0.99 0.33 1.98 0.66 3 1 C3.94921875 3.50390625 3.94921875 3.50390625 4.6875 6.5625 C4.93886719 7.57441406 5.19023437 8.58632812 5.44921875 9.62890625 C5.63097656 10.41136719 5.81273437 11.19382812 6 12 C5.34 12 4.68 12 4 12 C4 11.01 4 10.02 4 9 C3.34 9 2.68 9 2 9 C1.34 6.03 0.68 3.06 0 0 Z " fill="#704ADD" transform="translate(341,73)"/>
<path d="M0 0 C0 0.99 0 1.98 0 3 C-4 5 -8 7 -12 9 C-10.67708855 5.03126566 -9.08850262 4.70094963 -5.4375 2.8125 C-4.42558594 2.28269531 -3.41367188 1.75289062 -2.37109375 1.20703125 C-1.58863281 0.80871094 -0.80617187 0.41039062 0 0 Z " fill="#6C4AF5" transform="translate(162,33)"/>
<path d="M0 0 C6.52307692 1.35384615 6.52307692 1.35384615 8.9375 4.625 C9.288125 5.40875 9.63875 6.1925 10 7 C5.58738468 5.79655946 2.95916118 4.52823064 0 1 C0 0.67 0 0.34 0 0 Z " fill="#AC93FE" transform="translate(295,30)"/>
<path d="M0 0 C2.6875 -0.3125 2.6875 -0.3125 6 0 C8.875 2.5 8.875 2.5 11 5 C10.67 5.66 10.34 6.32 10 7 C9.278125 6.38125 8.55625 5.7625 7.8125 5.125 C5.21618062 3.16333647 3.05328334 2.04684 0 1 C0 0.67 0 0.34 0 0 Z " fill="#6251F2" transform="translate(185,194)"/>
<path d="M0 0 C0 0.99 0 1.98 0 3 C-1.96875 4.60546875 -1.96875 4.60546875 -4.5 6.1875 C-5.3353125 6.71730469 -6.170625 7.24710938 -7.03125 7.79296875 C-7.6809375 8.19128906 -8.330625 8.58960938 -9 9 C-9 8.01 -9 7.02 -9 6 C-7.03125 4.39453125 -7.03125 4.39453125 -4.5 2.8125 C-3.6646875 2.28269531 -2.829375 1.75289062 -1.96875 1.20703125 C-0.99421875 0.60955078 -0.99421875 0.60955078 0 0 Z " fill="#8068FC" transform="translate(301,168)"/>
<path d="M0 0 C0 2 0 2 -2.375 4.4375 C-3.24125 5.283125 -4.1075 6.12875 -5 7 C-5.66 7.99 -6.32 8.98 -7 10 C-7.3125 6.6875 -7.3125 6.6875 -7 3 C-4.60259082 1.04421883 -3.12413392 0 0 0 Z " fill="#7659FC" transform="translate(360,52)"/>
<path d="M0 0 C0.99 0.66 1.98 1.32 3 2 C0.69 4.64 -1.62 7.28 -4 10 C-4.66 9.67 -5.32 9.34 -6 9 C-4.02 6.03 -2.04 3.06 0 0 Z " fill="#8768FD" transform="translate(176,43)"/>
<path d="M0 0 C3.96 1.98 7.92 3.96 12 6 C11.67 6.99 11.34 7.98 11 9 C8.5 7.625 8.5 7.625 6 6 C6 5.34 6 4.68 6 4 C4.02 3.34 2.04 2.68 0 2 C0 1.34 0 0.68 0 0 Z " fill="#7062F8" transform="translate(295,21)"/>
<path d="M0 0 C0.99 0.99 1.98 1.98 3 3 C2.67 3.66 2.34 4.32 2 5 C-0.06640625 5.4140625 -0.06640625 5.4140625 -2.5625 5.625 C-3.38878906 5.69976562 -4.21507812 5.77453125 -5.06640625 5.8515625 C-6.02353516 5.92503906 -6.02353516 5.92503906 -7 6 C-5.625 4.5 -5.625 4.5 -4 3 C-3.34 3 -2.68 3 -2 3 C-2 2.34 -2 1.68 -2 1 C-1.34 0.67 -0.68 0.34 0 0 Z " fill="#7359F5" transform="translate(351,198)"/>
<path d="M0 0 C3.63 1.98 7.26 3.96 11 6 C11 6.66 11 7.32 11 8 C6.51400257 6.74809374 3.40652872 5.20614467 0 2 C0 1.34 0 0.68 0 0 Z " fill="#464CF2" transform="translate(140,167)"/>
<path d="M0 0 C2.02350324 3.03525486 2.32124018 4.19426202 2.625 7.6875 C2.69976562 8.49574219 2.77453125 9.30398437 2.8515625 10.13671875 C2.90054687 10.75160156 2.94953125 11.36648437 3 12 C2.34 12 1.68 12 1 12 C-1.23551759 8.64672361 -1.17283528 8.09256343 -0.625 4.3125 C-0.51414062 3.50425781 -0.40328125 2.69601563 -0.2890625 1.86328125 C-0.19367188 1.24839844 -0.09828125 0.63351563 0 0 Z " fill="#6A3FD6" transform="translate(346,86)"/>
<path d="M0 0 C0.99 0.33 1.98 0.66 3 1 C1.02 4.96 -0.96 8.92 -3 13 C-4.08644535 8.6542186 -3.90680911 8.05039452 -2.0625 4.25 C-1.68222656 3.45078125 -1.30195313 2.6515625 -0.91015625 1.828125 C-0.60980469 1.22484375 -0.30945313 0.6215625 0 0 Z " fill="#8265FD" transform="translate(168,55)"/>
<path d="M0 0 C0.886875 0.103125 1.77375 0.20625 2.6875 0.3125 C-0.25078597 2.81548434 -2.49152761 3.78180939 -6.3125 4.3125 C-6.6425 5.3025 -6.9725 6.2925 -7.3125 7.3125 C-7.6425 6.6525 -7.9725 5.9925 -8.3125 5.3125 C-4.12788462 0.38942308 -4.12788462 0.38942308 0 0 Z " fill="#845DFA" transform="translate(337.3125,10.6875)"/>
<path d="M0 0 C0.33 0 0.66 0 1 0 C1.0270043 1.45823212 1.04639787 2.91660675 1.0625 4.375 C1.07410156 5.18710938 1.08570313 5.99921875 1.09765625 6.8359375 C1 9 1 9 0 11 C-0.66 11 -1.32 11 -2 11 C-1.125 3.375 -1.125 3.375 0 0 Z " fill="#7555F2" transform="translate(343,129)"/>
<path d="M0 0 C0.66 0 1.32 0 2 0 C3 1 4 2 5 3 C5.99 3.33 6.98 3.66 8 4 C7.67 4.99 7.34 5.98 7 7 C4.625 6.3125 4.625 6.3125 2 5 C0.6875 2.375 0.6875 2.375 0 0 Z " fill="#5E41F5" transform="translate(351,65)"/>
<path d="M0 0 C0.99 0.33 1.98 0.66 3 1 C0.69 3.31 -1.62 5.62 -4 8 C-4.33 7.01 -4.66 6.02 -5 5 C-3.35 3.35 -1.7 1.7 0 0 Z " fill="#917EFB" transform="translate(192,38)"/>
<path d="M0 0 C0.99 0 1.98 0 3 0 C3 1.65 3 3.3 3 5 C1.35 5.33 -0.3 5.66 -2 6 C-1.125 1.125 -1.125 1.125 0 0 Z " fill="#6853F0" transform="translate(177,26)"/>
<path d="M0 0 C-0.33 0.99 -0.66 1.98 -1 3 C-3.97 2.67 -6.94 2.34 -10 2 C-6.70021068 -0.19985954 -3.76967739 -1.88483869 0 0 Z " fill="#725BED" transform="translate(251,192)"/>
<path d="M0 0 C3.99500618 1.3697164 6.80009492 3.25722422 10 6 C9.67 6.66 9.34 7.32 9 8 C7.49712782 6.85793642 5.99776716 5.71125043 4.5 4.5625 C3.6646875 3.92441406 2.829375 3.28632813 1.96875 2.62890625 C1.3190625 2.09136719 0.669375 1.55382812 0 1 C0 0.67 0 0.34 0 0 Z " fill="#5A3CF0" transform="translate(137,171)"/>
<path d="M0 0 C6.57142857 4 6.57142857 4 8 8 C4.63820226 6.55922954 2.40843732 4.75249979 0 2 C0 1.34 0 0.68 0 0 Z " fill="#5F55FA" transform="translate(240,100)"/>
<path d="M0 0 C2.96404505 2.80804268 5.44499019 5.18315774 7 9 C6.01 9 5.02 9 4 9 C0 2.25 0 2.25 0 0 Z " fill="#5944F5" transform="translate(200,207)"/>
<path d="M0 0 C1.98 0 3.96 0 6 0 C5.01 0.66 4.02 1.32 3 2 C3.99 2.66 4.98 3.32 6 4 C3.69 4 1.38 4 -1 4 C-0.67 2.68 -0.34 1.36 0 0 Z " fill="#5520DD" transform="translate(319,208)"/>
<path d="M0 0 C0.99 0.33 1.98 0.66 3 1 C0.03 3.475 0.03 3.475 -3 6 C-3.33 5.01 -3.66 4.02 -4 3 C-2.1875 1.4375 -2.1875 1.4375 0 0 Z " fill="#7F5AFA" transform="translate(319,30)"/>
</svg>
